<svg width="114" height="24" viewBox="0 0 114 24" fill="none" xmlns="http://www.w3.org/2000/svg">
<path d="M0 15.9999H15.9941V23.9999H0V15.9999Z" fill="currentColor"/>
<path d="M23.9941 8L8.00004 8L8.00004 -1.65544e-05L23.9941 -1.51562e-05L23.9941 8Z" fill="currentColor"/>
<path d="M0 8H8.00002V16H0V8Z" fill="currentColor"/>
<path d="M23.9941 15.9999L15.9941 15.9999L15.9941 7.99986L23.9941 7.99986L23.9941 15.9999Z" fill="currentColor"/>
<path d="M0 3.99988H4.00001V7.99989H0V3.99988Z" fill="currentColor"/>
<path d="M0 0H1.99025V2H0V0Z" fill="currentColor"/>
<path d="M22.0038 21.9999H23.994V23.9999H22.0038V21.9999Z" fill="currentColor"/>
<path d="M23.9941 20L19.9941 20L19.9941 16L23.9941 16L23.9941 20Z" fill="currentColor"/>
<path d="M35.6478 0H30.9171V21.7498L33.5132 23.9998H37.3786V19.6729H35.6478V0Z" fill="currentColor"/>
<path fill-rule="evenodd" clip-rule="evenodd" d="M53.8775 6.05762L56.1275 8.36529V21.6921L53.8775 23.9998H42.1661L39.743 21.6921V8.48067L42.1661 6.05762H53.8775ZM44.4599 10.7747L44.4733 19.6215L47.993 19.6152H51.4031L51.3897 10.7685L44.4599 10.7747Z" fill="currentColor"/>
<path d="M63.212 8.07685L64.8382 6.05764H72.5658L74.9342 8.4807V23.9998H70.2026L70.1978 10.7732H63.2179L63.2227 23.9998H58.4921L58.4921 6.05764L63.212 6.05762V8.07685Z" fill="currentColor"/>
<path d="M77.3547 8.48067L79.6624 6.05762H91.4892L93.97 8.53837V13.1338H89.1936L89.1832 10.766L82.0719 10.7751L82.0789 19.6086H89.2513L89.2386 16.6894H93.97V21.6921L91.4892 23.9998H79.6624L77.3547 21.6921V8.48067Z" fill="currentColor"/>
<path fill-rule="evenodd" clip-rule="evenodd" d="M113.124 8.48066V24H108.509V21.9227L106.432 24H98.5285L96.2783 21.6923V15.4955L98.6356 13.1349H108.395V10.772L97.0288 10.7765V6.0575H110.701L113.124 8.48066ZM101.007 16.3772V19.9255H108.396V16.3772H101.007Z" fill="currentColor"/>
<path fill-rule="evenodd" clip-rule="evenodd" d="M113.124 8.48066V24H108.509V21.9227L106.432 24H98.5285L96.2783 21.6923V15.4955L98.6356 13.1349H108.395V10.772L97.0288 10.7765V6.0575H110.701L113.124 8.48066ZM101.007 16.3772V19.9255H108.396V16.3772H101.007Z" fill="currentColor"/>
</svg>
