<svg width="83" height="24" viewBox="0 0 83 24" fill="none" xmlns="http://www.w3.org/2000/svg">
<path d="M4.73073 0H0V21.7498L2.59613 23.9998H6.46148V19.6729H4.73073V0Z" fill="#FAFAF9"/>
<path fill-rule="evenodd" clip-rule="evenodd" d="M22.9604 6.05762L25.2104 8.36529V21.6921L22.9604 23.9998H11.249L8.82593 21.6921V8.48067L11.249 6.05762H22.9604ZM13.5428 10.7747L13.5562 19.6215L17.0759 19.6152H20.486L20.4726 10.7685L13.5428 10.7747Z" fill="#FAFAF9"/>
<path d="M32.2948 8.07685L33.9211 6.05764H41.6487L44.0171 8.4807V23.9998H39.2855L39.2807 10.7732H32.3008L32.3056 23.9998H27.575L27.575 6.05764L32.2948 6.05762V8.07685Z" fill="#FAFAF9"/>
<path d="M46.4376 8.48067L48.7453 6.05762H60.5721L63.0529 8.53837V13.1338H58.2765L58.2661 10.766L51.1548 10.7751L51.1618 19.6086H58.3342L58.3215 16.6894H63.0529V21.6921L60.5721 23.9998H48.7453L46.4376 21.6921V8.48067Z" fill="#FAFAF9"/>
<path fill-rule="evenodd" clip-rule="evenodd" d="M82.2072 8.48066V24H77.5919V21.9227L75.5152 24H67.6113L65.3611 21.6923V15.4955L67.7183 13.1349H77.4781V10.772L66.1115 10.7765V6.0575H79.784L82.2072 8.48066ZM70.0902 16.3772V19.9255H77.4786V16.3772H70.0902Z" fill="#FAFAF9"/>
<path fill-rule="evenodd" clip-rule="evenodd" d="M82.2072 8.48066V24H77.5919V21.9227L75.5152 24H67.6113L65.3611 21.6923V15.4955L67.7183 13.1349H77.4781V10.772L66.1115 10.7765V6.0575H79.784L82.2072 8.48066ZM70.0902 16.3772V19.9255H77.4786V16.3772H70.0902Z" fill="#FAFAF9"/>
</svg>
